# File created by Blade
# Date/Time:  Wed Sep 24 19:42:34 2014
# Frame Rate: 120.000 fps
#------------------------------------------------------
:FULLY-SPECIFIED
:DEGREES
682
root -4.750844 32.982750 -2.928602 7.679647 7.377432 -2.080046
Spine -15.231429 14.176699 -1.874728
Head 17.449730 -20.630753 10.153839
LeftShoulder -7.876741 19.077158 9.976645
LeftArm 23.360483 39.089358 -68.779327
LeftForeArm -1.113984 0.000000 23.976437
LeftHand -23.466783 -0.000000 -8.445019
LeftHandThumb1 -26.253704 0.000000 33.147579
RightShoulder -121.279011 52.417146 -183.745655
RightArm -28.974103 22.009334 46.128330
RightForeArm 70.952021 -0.000000 160.661704
RightHand 14.564836 -0.000000 42.398451
RightHandThumb1 -24.326973 -0.000000 -32.862282
LeftUpLeg -2.105306 1.934286 6.613473
LeftLeg -2.382272 -0.000000 0.000000
LeftFoot -7.678867 3.180623 -18.544753
LeftToeBase 10.035377 -0.000000 -0.000000
RightUpLeg -2.445365 -11.670699 0.845948
RightLeg 1.151107 -0.000000 -0.000000
RightFoot -6.412333 -5.548999 -14.692863
RightToeBase 0.452223 -0.000000 -0.000000
683
root -4.751020 32.982061 -2.927071 7.674596 7.386199 -2.092222
Spine -15.220792 14.168130 -1.874905
Head 17.423915 -20.641176 10.197287
LeftShoulder -7.862998 19.056035 9.978030
LeftArm 23.313021 39.075622 -68.810651
LeftForeArm -1.111282 -0.000000 24.008109
LeftHand -23.474727 -0.000000 -8.404484
LeftHandThumb1 -26.253704 0.000000 33.147579
RightShoulder -121.085866 52.537671 -183.461110
RightArm -28.841108 22.220580 46.074593
RightForeArm 70.922946 0.000000 160.659162
RightHand 14.608512 -0.000000 42.241040
RightHandThumb1 -24.326973 -0.000000 -32.862282
LeftUpLeg -2.100535 1.955998 6.630230
LeftLeg -2.380551 -0.000000 0.000000
LeftFoot -7.688648 3.135444 -18.576022
LeftToeBase 10.093000 -0.000000 -0.000000
RightUpLeg -2.438897 -11.654369 0.857666
RightLeg 1.155286 -0.000000 -0.000000
RightFoot -6.411940 -5.571964 -14.699690
RightToeBase 0.435686 -0.000000 -0.000000
684
root -4.750161 32.981660 -2.926018 7.677016 7.399517 -2.092010
Spine -15.216786 14.130039 -1.881142
Head 17.399962 -20.614678 10.228618
LeftShoulder -7.912530 19.077471 9.957537
LeftArm 23.381348 39.111059 -68.749523
LeftForeArm -1.150376 -0.000000 24.000739
LeftHand -23.475797 -0.000000 -8.402258
LeftHandThumb1 -26.253704 0.000000 33.147579
RightShoulder -120.894855 52.702276 -183.192733
RightArm -28.729127 22.496226 45.944919
RightForeArm 70.848136 -0.000000 160.674572
RightHand 14.703433 0.000000 42.023709
RightHandThumb1 -24.326973 -0.000000 -32.862282
LeftUpLeg -2.099347 1.953890 6.630819
LeftLeg -2.390264 -0.000000 0.000000
LeftFoot -7.680704 3.114508 -18.584193
LeftToeBase 10.100312 -0.000000 -0.000000
RightUpLeg -2.429404 -11.626392 0.855779
RightLeg 1.137859 -0.000000 -0.000000
RightFoot -6.400443 -5.601391 -14.665025
RightToeBase 0.455378 -0.000000 -0.000000
685
root -4.750174 32.981470 -2.925286 7.680533 7.408547 -2.092459
Spine -15.213994 14.133301 -1.903399
Head 17.336547 -20.599877 10.298153
LeftShoulder -7.881333 19.041071 9.978548
LeftArm 23.347211 39.109658 -68.781888
LeftForeArm -1.146164 0.000000 23.991224
LeftHand -23.465700 -0.000000 -8.423159
LeftHandThumb1 -26.253704 0.000000 33.147579
RightShoulder -120.532014 52.903205 -182.704827
RightArm -28.513791 22.838143 45.868089
RightForeArm 70.816180 -0.000000 160.677617
RightHand 14.764769 0.000000 41.670017
RightHandThumb1 -24.326973 -0.000000 -32.862282
LeftUpLeg -2.100448 1.949559 6.632271
LeftLeg -2.396005 -0.000000 0.000000
LeftFoot -7.680909 3.109093 -18.589017
LeftToeBase 10.114789 -0.000000 -0.000000
RightUpLeg -2.428102 -11.630286 0.857689
RightLeg 1.130949 -0.000000 -0.000000
RightFoot -6.399357 -5.607084 -14.691710
RightToeBase 0.491896 -0.000000 -0.000000
